HIERARCHY
ROOT joint_Root
{
	OFFSET 0.0 0.0 0.0
	CHANNELS 6 Xposition Yposition Zposition Zrotation Xrotation Yrotation 
	JOINT Hips
	{
		OFFSET -0.726466 93.3139 -2.00062
		CHANNELS 6 Xposition Yposition Zposition Zrotation Xrotation Yrotation 
		JOINT Spine
		{
			OFFSET 15.7357 0.0 0.0
			CHANNELS 6 Xposition Yposition Zposition Zrotation Xrotation Yrotation 
			JOINT Chest
			{
				OFFSET 8.98455 -0.406207 0.0
				CHANNELS 6 Xposition Yposition Zposition Zrotation Xrotation Yrotation 
				JOINT Neck
				{
					OFFSET 16.3773 0.0 0.0
					CHANNELS 6 Xposition Yposition Zposition Zrotation Xrotation Yrotation 
					JOINT Head
					{
						OFFSET 6.45672 0.0 0.0
						CHANNELS 6 Xposition Yposition Zposition Zrotation Xrotation Yrotation 
						End Site
						{
							OFFSET 0.0 0.0 0.0
						}
					}
				}
				JOINT Shoulder_L
				{
					OFFSET 12.9942 -0.242716 4.98039
					CHANNELS 6 Xposition Yposition Zposition Zrotation Xrotation Yrotation 
					JOINT UpperArm_L
					{
						OFFSET 5.34809 0.0 0.0
						CHANNELS 6 Xposition Yposition Zposition Zrotation Xrotation Yrotation 
						JOINT LowerArm_L
						{
							OFFSET 24.3286 1.87007e-05 0.0
							CHANNELS 6 Xposition Yposition Zposition Zrotation Xrotation Yrotation 
							JOINT Hand_L
							{
								OFFSET 22.2916 0.0 0.0
								CHANNELS 6 Xposition Yposition Zposition Zrotation Xrotation Yrotation 
								End Site
								{
									OFFSET 0.0 0.0 0.0
								}
							}
						}
					}
				}
				JOINT Shoulder_R
				{
					OFFSET 12.9945 -0.242716 -4.98039
					CHANNELS 6 Xposition Yposition Zposition Zrotation Xrotation Yrotation 
					JOINT UpperArm_R
					{
						OFFSET -5.34813 0.0 0.0
						CHANNELS 6 Xposition Yposition Zposition Zrotation Xrotation Yrotation 
						JOINT LowerArm_R
						{
							OFFSET -24.3289 0.000322201 0.0
							CHANNELS 6 Xposition Yposition Zposition Zrotation Xrotation Yrotation 
							JOINT Hand_R
							{
								OFFSET -22.2915 -0.000108084 0.0
								CHANNELS 6 Xposition Yposition Zposition Zrotation Xrotation Yrotation 
								End Site
								{
									OFFSET 0.0 0.0 0.0
								}
							}
						}
					}
				}
			}
		}
		JOINT UpperLeg_L
		{
			OFFSET -2.19248 -6.46944 0.0
			CHANNELS 6 Xposition Yposition Zposition Zrotation Xrotation Yrotation 
			JOINT LowerLeg_L
			{
				OFFSET 39.0811 0.0 -1.23785e-05
				CHANNELS 6 Xposition Yposition Zposition Zrotation Xrotation Yrotation 
				JOINT Foot_L
				{
					OFFSET 40.9854 0.0 -1.26872e-05
					CHANNELS 6 Xposition Yposition Zposition Zrotation Xrotation Yrotation 
					JOINT Toes_L
					{
						OFFSET 11.7543 0.0 0.0
						CHANNELS 6 Xposition Yposition Zposition Zrotation Xrotation Yrotation 
						End Site
						{
							OFFSET 0.0 0.0 0.0
						}
					}
				}
			}
		}
		JOINT UpperLeg_R
		{
			OFFSET -2.19251 6.46944 0.0
			CHANNELS 6 Xposition Yposition Zposition Zrotation Xrotation Yrotation 
			JOINT LowerLeg_R
			{
				OFFSET -39.0811 -0.00228153 -0.0401928
				CHANNELS 6 Xposition Yposition Zposition Zrotation Xrotation Yrotation 
				JOINT Foot_R
				{
					OFFSET -40.9854 0.0 0.0
					CHANNELS 6 Xposition Yposition Zposition Zrotation Xrotation Yrotation 
					JOINT Toes_R
					{
						OFFSET -11.7543 0.0 0.0
						CHANNELS 6 Xposition Yposition Zposition Zrotation Xrotation Yrotation 
						End Site
						{
							OFFSET 0.0 0.0 0.0
						}
					}
				}
			}
		}
	}
}
MOTION
Frames:	8
Frame Time:	0.0333333
0.000000 0.000000 0.000000 0.000000 0.000000 -0.000000 -1.783740 91.543200 0.389457 87.414900 -3.181770 7.493110 15.735700 0.000005 -0.000001 87.845500 85.471000 -89.352300 8.984550 -0.406207 -0.000000 1.284050 -0.255176 -3.008060 16.377300 -0.000001 -0.000001 5.309900 -2.168540 2.084210 6.456720 -0.000001 -0.000000 0.214767 -0.739224 -5.148450 12.994200 -0.242716 4.980390 -88.835100 -3.638030 -72.230900 5.348090 -0.000007 -0.000001 32.434100 72.931500 -79.498200 24.328600 0.000019 0.000005 16.606100 0.799815 -87.320200 22.291600 -0.000001 0.000005 46.574100 5.597640 -31.039000 12.994500 -0.242716 -4.980390 91.935200 -4.206870 -65.269100 -5.348130 -0.000001 -0.000004 -42.783400 -53.096600 -89.382000 -24.328900 0.000322 -0.000009 -1.403590 -1.377040 -45.531800 -22.291500 -0.000108 -0.000004 24.512400 5.513160 -7.073300 -2.192480 -6.469440 -0.000000 -165.433000 -19.918600 2.194780 39.081100 -0.000007 -0.000012 -0.218477 0.490756 23.998200 40.985400 -0.000006 -0.000013 -7.868240 -0.287434 -65.149500 11.754300 -0.000000 0.000003 -0.000119 -0.001194 -16.623200 -2.192510 6.469440 -0.000001 173.579000 21.233400 -177.503000 -39.081100 -0.002282 -0.040193 0.037337 -0.077629 23.666000 -40.985400 0.000008 0.000006 -0.493831 1.770650 -66.177000 -11.754300 -0.000006 -0.000006 -0.005715 -0.068222 -19.349400
0.000000 0.000000 0.000000 0.000000 0.000000 -0.000000 -1.776310 91.546900 0.360446 87.413800 -3.212370 7.391380 15.735700 0.000005 -0.000001 87.776800 85.456700 -89.278800 8.984550 -0.406207 -0.000000 1.311970 -0.267765 -2.998420 16.377300 -0.000001 -0.000001 5.373310 -2.205770 2.048820 6.456720 -0.000001 -0.000000 0.113866 -0.790647 -5.148070 12.994200 -0.242716 4.980390 -88.844800 -3.603480 -72.211300 5.348090 -0.000007 -0.000001 32.409400 72.916900 -79.492200 24.328600 0.000019 0.000005 16.570500 0.826784 -87.223700 22.291600 -0.000001 0.000005 46.652500 5.594310 -31.233400 12.994500 -0.242716 -4.980390 91.940800 -4.211350 -65.228800 -5.348130 -0.000001 -0.000004 -42.771800 -53.084000 -89.363400 -24.328900 0.000322 -0.000009 -1.355340 -1.330630 -45.510300 -22.291500 -0.000108 -0.000004 24.568100 5.510500 -6.962670 -2.192480 -6.469440 -0.000000 -165.465000 -20.007700 2.067170 39.081100 -0.000007 -0.000012 -0.218948 0.491640 24.005700 40.985400 -0.000006 -0.000013 -7.850590 -0.263012 -65.123300 11.754300 -0.000000 0.000003 -0.000121 -0.001208 -16.623700 -2.192510 6.469440 -0.000001 173.625000 21.271300 -177.653000 -39.081100 -0.002282 -0.040193 0.038520 -0.080272 23.681300 -40.985400 0.000008 0.000006 -0.440472 1.829300 -66.155400 -11.754300 -0.000006 -0.000006 -0.005848 -0.069451 -19.399500
0.000000 0.000000 0.000000 0.000000 0.000000 -0.000000 -1.774250 91.565000 0.323239 87.433600 -3.209360 7.328970 15.735700 0.000005 -0.000001 87.629100 85.430100 -89.134100 8.984550 -0.406207 -0.000000 1.363840 -0.293871 -3.003990 16.377300 -0.000001 -0.000001 5.456610 -2.219180 1.996290 6.456720 -0.000001 -0.000000 -0.064483 -0.804319 -5.180720 12.994200 -0.242716 4.980390 -88.861200 -3.546010 -72.182300 5.348090 -0.000007 -0.000001 32.546900 72.873200 -79.566600 24.328600 0.000019 0.000005 16.619000 0.825023 -87.238100 22.291600 -0.000001 0.000005 46.718800 5.594150 -31.242600 12.994500 -0.242716 -4.980390 91.931200 -4.179340 -65.171700 -5.348130 -0.000001 -0.000004 -42.835900 -53.074600 -89.404800 -24.328900 0.000322 -0.000009 -1.327050 -1.301130 -45.547600 -22.291500 -0.000108 -0.000004 24.446700 5.505980 -6.776140 -2.192480 -6.469440 -0.000000 -165.506000 -20.031400 2.049860 39.081100 -0.000007 -0.000012 -0.218691 0.494049 23.877000 40.985400 -0.000006 -0.000013 -7.841720 -0.242292 -65.042600 11.754300 -0.000000 0.000003 -0.000137 -0.001344 -16.628800 -2.192510 6.469440 -0.000001 173.634000 21.281600 -177.749000 -39.081100 -0.002282 -0.040193 0.037410 -0.077794 23.666800 -40.985400 0.000008 0.000006 -0.462555 1.840780 -66.049200 -11.754300 -0.000006 -0.000006 -0.005544 -0.066632 -19.284600
0.000000 0.000000 0.000000 0.000000 0.000000 -0.000000 -1.785290 91.572900 0.288830 87.442900 -3.182330 7.265360 15.735700 0.000005 -0.000001 87.507500 85.398400 -89.018600 8.984550 -0.406207 -0.000000 1.426060 -0.316472 -3.015490 16.377300 -0.000001 -0.000001 5.444070 -2.253730 1.944090 6.456720 -0.000001 -0.000000 -0.162401 -0.838512 -5.223990 12.994200 -0.242716 4.980390 -88.858200 -3.558130 -72.194800 5.348090 -0.000007 -0.000001 32.423300 72.852200 -79.433900 24.328600 0.000019 0.000005 16.627100 0.816448 -87.268200 22.291600 -0.000001 0.000005 46.662700 5.593580 -31.275300 12.994500 -0.242716 -4.980390 91.945900 -4.209860 -65.164500 -5.348130 -0.000001 -0.000004 -42.922600 -53.123200 -89.344000 -24.328900 0.000322 -0.000009 -1.266980 -1.241080 -45.572000 -22.291500 -0.000108 -0.000004 24.451500 5.504150 -6.701520 -2.192480 -6.469440 -0.000000 -165.548000 -20.058300 1.952150 39.081100 -0.000007 -0.000012 -0.216726 0.490159 23.853200 40.985400 -0.000006 -0.000013 -7.831240 -0.249258 -64.990900 11.754300 -0.000000 0.000003 -0.000105 -0.001070 -16.618600 -2.192510 6.469440 -0.000001 173.673000 21.297900 -177.844000 -39.081100 -0.002282 -0.040193 0.039086 -0.081633 23.662900 -40.985400 0.000008 0.000006 -0.349268 1.807660 -66.039300 -11.754300 -0.000006 -0.000006 -0.005609 -0.067243 -19.309500
0.000000 0.000000 0.000000 0.000000 0.000000 -0.000000 -1.778310 91.574000 0.246243 87.423700 -3.132420 7.195630 15.735700 0.000005 -0.000001 87.418900 85.383400 -88.926600 8.984550 -0.406207 -0.000000 1.455140 -0.332601 -3.008540 16.377300 -0.000001 -0.000001 5.411590 -2.264080 1.929880 6.456720 -0.000001 -0.000000 -0.163396 -0.835307 -5.285430 12.994200 -0.242716 4.980390 -88.863400 -3.547120 -72.219400 5.348090 -0.000007 -0.000001 32.493400 72.841700 -79.436700 24.328600 0.000019 0.000005 16.590300 0.799336 -87.319100 22.291600 -0.000001 0.000005 46.580800 5.592230 -31.352200 12.994500 -0.242716 -4.980390 91.963200 -4.248850 -65.171500 -5.348130 -0.000001 -0.000004 -43.002300 -53.161800 -89.249200 -24.328900 0.000322 -0.000009 -1.297610 -1.270340 -45.590000 -22.291500 -0.000108 -0.000004 24.528400 5.504150 -6.701310 -2.192480 -6.469440 -0.000000 -165.564000 -20.088100 1.809320 39.081100 -0.000007 -0.000012 -0.217094 0.489888 23.900900 40.985400 -0.000006 -0.000013 -7.807140 -0.205420 -64.972100 11.754300 -0.000000 0.000003 -0.000112 -0.001130 -16.620800 -2.192510 6.469440 -0.000001 173.751000 21.248900 -177.945000 -39.081100 -0.002282 -0.040193 0.039154 -0.081838 23.650100 -40.985400 0.000008 0.000006 -0.376582 1.705920 -66.022700 -11.754300 -0.000006 -0.000006 -0.005430 -0.065572 -19.241400
0.000000 0.000000 0.000000 0.000000 0.000000 -0.000000 -1.784380 91.583500 0.222823 87.419900 -3.103830 7.175330 15.735700 0.000005 -0.000001 87.386800 85.357600 -88.904700 8.984550 -0.406207 -0.000000 1.506520 -0.340231 -3.028680 16.377300 -0.000001 -0.000001 5.367950 -2.239200 1.935370 6.456720 -0.000001 -0.000000 -0.104705 -0.787190 -5.253690 12.994200 -0.242716 4.980390 -88.853000 -3.582030 -72.230800 5.348090 -0.000007 -0.000001 32.414800 72.877900 -79.372200 24.328600 0.000019 0.000005 16.625700 0.783876 -87.376800 22.291600 -0.000001 0.000005 46.524800 5.595730 -31.150900 12.994500 -0.242716 -4.980390 91.964600 -4.255500 -65.190300 -5.348130 -0.000001 -0.000004 -43.154100 -53.179600 -89.276200 -24.328900 0.000322 -0.000009 -1.280210 -1.257730 -45.488700 -22.291500 -0.000108 -0.000004 24.507400 5.504040 -6.696850 -2.192480 -6.469440 -0.000000 -165.569000 -20.079900 1.790060 39.081100 -0.000007 -0.000012 -0.216729 0.490319 23.846600 40.985400 -0.000006 -0.000013 -7.802020 -0.184938 -64.923900 11.754300 -0.000000 0.000003 -0.000090 -0.000939 -16.613600 -2.192510 6.469440 -0.000001 173.740000 21.375500 -177.967000 -39.081100 -0.002282 -0.040193 0.038386 -0.080162 23.629900 -40.985400 0.000008 0.000006 -0.405803 1.802820 -65.954100 -11.754300 -0.000006 -0.000006 -0.005770 -0.068733 -19.370300
0.000000 0.000000 0.000000 0.000000 0.000000 -0.000000 -1.788880 91.589200 0.199321 87.440500 -3.081750 7.179620 15.735700 0.000005 -0.000001 87.600900 85.328500 -89.132100 8.984550 -0.406207 -0.000000 1.566580 -0.308100 -3.055520 16.377300 -0.000001 -0.000001 5.353840 -2.234440 1.949680 6.456720 -0.000001 -0.000000 -0.069395 -0.824222 -5.276920 12.994200 -0.242716 4.980390 -88.852700 -3.587250 -72.250900 5.348090 -0.000007 -0.000001 32.187200 72.886200 -79.135800 24.328600 0.000019 0.000005 16.664300 0.775526 -87.411000 22.291600 -0.000001 0.000005 46.456100 5.596030 -31.133400 12.994500 -0.242716 -4.980390 91.967600 -4.258390 -65.171200 -5.348130 -0.000001 -0.000004 -43.433500 -53.205700 -89.437600 -24.328900 0.000322 -0.000009 -1.337820 -1.318160 -45.406800 -22.291500 -0.000108 -0.000004 24.406600 5.504240 -6.705220 -2.192480 -6.469440 -0.000000 -165.599000 -20.108300 1.769750 39.081100 -0.000007 -0.000012 -0.213840 0.484204 23.828100 40.985400 -0.000006 -0.000013 -7.780370 -0.160233 -64.882600 11.754300 -0.000000 0.000003 -0.000133 -0.001311 -16.627500 -2.192510 6.469440 -0.000001 173.736000 21.367300 -177.981000 -39.081100 -0.002282 -0.040193 0.038808 -0.081097 23.637400 -40.985400 0.000008 0.000006 -0.399387 1.755060 -65.936800 -11.754300 -0.000006 -0.000006 -0.005650 -0.067622 -19.324900
0.000000 0.000000 0.000000 0.000000 0.000000 -0.000000 -1.795120 91.594300 0.178079 87.431200 -3.055780 7.155820 15.735700 0.000005 -0.000001 87.534300 85.316700 -89.070100 8.984550 -0.406207 -0.000000 1.589460 -0.320010 -3.064450 16.377300 -0.000001 -0.000001 5.419380 -2.221620 1.982100 6.456720 -0.000001 -0.000000 -0.072987 -0.759192 -5.265760 12.994200 -0.242716 4.980390 -88.843700 -3.600280 -72.180900 5.348090 -0.000007 -0.000001 31.942000 72.906200 -78.906100 24.328600 0.000019 0.000005 16.695200 0.774295 -87.420200 22.291600 -0.000001 0.000005 46.381500 5.595790 -31.147200 12.994500 -0.242716 -4.980390 91.961900 -4.255840 -65.222000 -5.348130 -0.000001 -0.000004 -43.716600 -53.223600 -89.628500 -24.328900 0.000322 -0.000009 -1.394320 -1.376430 -45.354500 -22.291500 -0.000108 -0.000004 24.404200 5.505990 -6.776720 -2.192480 -6.469440 -0.000000 -165.601000 -20.074400 1.741160 39.081100 -0.000007 -0.000012 -0.215146 0.487844 23.798500 40.985400 -0.000006 -0.000013 -7.782830 -0.155289 -64.857200 11.754300 -0.000000 0.000003 -0.000105 -0.001071 -16.618600 -2.192510 6.469440 -0.000001 173.756000 21.427700 -178.008000 -39.081100 -0.002282 -0.040193 0.039090 -0.081811 23.619400 -40.985400 0.000008 0.000006 -0.353931 1.754230 -65.916800 -11.754300 -0.000006 -0.000006 -0.005614 -0.067289 -19.311400
